<svg width="130.969" height="135.276" fill="none" xmlns="http://www.w3.org/2000/svg"><path d="M108.77 103.34c.01.19 23.07-11.33 9.44-34.48-11.52-19.54-34.93-24.22-51.56-14.16-7.13 4.31-15.89 19.25-4.77 25.17 9.99 5.31 22.69-1.22 28.66-10.54 12.6-19.7.83-35.63-17.86-40.71-20.71-5.61-40.25 2.1-57.03 14.67" stroke="#000" stroke-width="3.379" stroke-linejoin="round" stroke-linecap="round"/><path d="M34.53 48.33c-6.74-5.72-17.4-4.3-24.82-1.04 5.64-5.26 8.79-13.59 9.57-21.62.24-2.44.59-4.87-.02-7.29" stroke="#000" stroke-width="3.379" stroke-linejoin="round" stroke-linecap="round"/></svg>