<svg width="116.279297" height="192.224121" viewBox="0 0 116.279 192.224" fill="none" xmlns="http://www.w3.org/2000/svg" xmlns:xlink="http://www.w3.org/1999/xlink">
	<desc>
			Created with Pixso.
	</desc>
	<defs/>
	<g opacity="0.500000" style="mix-blend-mode:normal">
		<rect id="Rectangle 3" width="2.836072" height="2.840729" fill="#000000" fill-opacity="1.000000"/>
		<rect id="Rectangle 3" width="2.836072" height="2.840729" stroke="#979797" stroke-opacity="0" stroke-width="0.000000"/>
		<rect id="Rectangle 3 Copy" x="18.906250" width="2.836072" height="2.840729" fill="#000000" fill-opacity="1.000000"/>
		<rect id="Rectangle 3 Copy" x="18.906250" width="2.836072" height="2.840729" stroke="#979797" stroke-opacity="0" stroke-width="0.000000"/>
		<rect id="Rectangle 3 Copy 2" x="37.814453" width="2.836072" height="2.840729" fill="#000000" fill-opacity="1.000000"/>
		<rect id="Rectangle 3 Copy 2" x="37.814453" width="2.836072" height="2.840729" stroke="#979797" stroke-opacity="0" stroke-width="0.000000"/>
		<rect id="Rectangle 3 Copy 3" x="56.721680" width="2.836072" height="2.840729" fill="#000000" fill-opacity="1.000000"/>
		<rect id="Rectangle 3 Copy 3" x="56.721680" width="2.836072" height="2.840729" stroke="#979797" stroke-opacity="0" stroke-width="0.000000"/>
		<rect id="Rectangle 3 Copy 4" x="75.628906" width="2.836072" height="2.840729" fill="#000000" fill-opacity="1.000000"/>
		<rect id="Rectangle 3 Copy 4" x="75.628906" width="2.836072" height="2.840729" stroke="#979797" stroke-opacity="0" stroke-width="0.000000"/>
		<rect id="Rectangle 3 Copy 5" x="94.536133" width="2.836072" height="2.840729" fill="#000000" fill-opacity="1.000000"/>
		<rect id="Rectangle 3 Copy 5" x="94.536133" width="2.836072" height="2.840729" stroke="#979797" stroke-opacity="0" stroke-width="0.000000"/>
		<rect id="Rectangle 3 Copy 6" x="113.443359" width="2.836072" height="2.840729" fill="#000000" fill-opacity="1.000000"/>
		<rect id="Rectangle 3 Copy 6" x="113.443359" width="2.836072" height="2.840729" stroke="#979797" stroke-opacity="0" stroke-width="0.000000"/>
		<rect id="Rectangle 3 Copy 19" y="18.937744" width="2.836072" height="2.840729" fill="#000000" fill-opacity="1.000000"/>
		<rect id="Rectangle 3 Copy 19" y="18.937744" width="2.836072" height="2.840729" stroke="#979797" stroke-opacity="0" stroke-width="0.000000"/>
		<rect id="Rectangle 3 Copy 18" x="18.906250" y="18.937744" width="2.836072" height="2.840729" fill="#000000" fill-opacity="1.000000"/>
		<rect id="Rectangle 3 Copy 18" x="18.906250" y="18.937744" width="2.836072" height="2.840729" stroke="#979797" stroke-opacity="0" stroke-width="0.000000"/>
		<rect id="Rectangle 3 Copy 17" x="37.814453" y="18.937744" width="2.836072" height="2.840729" fill="#000000" fill-opacity="1.000000"/>
		<rect id="Rectangle 3 Copy 17" x="37.814453" y="18.937744" width="2.836072" height="2.840729" stroke="#979797" stroke-opacity="0" stroke-width="0.000000"/>
		<rect id="Rectangle 3 Copy 16" x="56.721680" y="18.937744" width="2.836072" height="2.840729" fill="#000000" fill-opacity="1.000000"/>
		<rect id="Rectangle 3 Copy 16" x="56.721680" y="18.937744" width="2.836072" height="2.840729" stroke="#979797" stroke-opacity="0" stroke-width="0.000000"/>
		<rect id="Rectangle 3 Copy 15" x="75.628906" y="18.937744" width="2.836072" height="2.840729" fill="#000000" fill-opacity="1.000000"/>
		<rect id="Rectangle 3 Copy 15" x="75.628906" y="18.937744" width="2.836072" height="2.840729" stroke="#979797" stroke-opacity="0" stroke-width="0.000000"/>
		<rect id="Rectangle 3 Copy 14" x="94.536133" y="18.937744" width="2.836072" height="2.840729" fill="#000000" fill-opacity="1.000000"/>
		<rect id="Rectangle 3 Copy 14" x="94.536133" y="18.937744" width="2.836072" height="2.840729" stroke="#979797" stroke-opacity="0" stroke-width="0.000000"/>
		<rect id="Rectangle 3 Copy 13" x="113.443359" y="18.937744" width="2.836072" height="2.840729" fill="#000000" fill-opacity="1.000000"/>
		<rect id="Rectangle 3 Copy 13" x="113.443359" y="18.937744" width="2.836072" height="2.840729" stroke="#979797" stroke-opacity="0" stroke-width="0.000000"/>
		<rect id="Rectangle 3 Copy 29" y="37.876465" width="2.836072" height="2.840729" fill="#000000" fill-opacity="1.000000"/>
		<rect id="Rectangle 3 Copy 29" y="37.876465" width="2.836072" height="2.840729" stroke="#979797" stroke-opacity="0" stroke-width="0.000000"/>
		<rect id="Rectangle 3 Copy 28" x="18.906250" y="37.876465" width="2.836072" height="2.840729" fill="#000000" fill-opacity="1.000000"/>
		<rect id="Rectangle 3 Copy 28" x="18.906250" y="37.876465" width="2.836072" height="2.840729" stroke="#979797" stroke-opacity="0" stroke-width="0.000000"/>
		<rect id="Rectangle 3 Copy 27" x="37.814453" y="37.876465" width="2.836072" height="2.840729" fill="#000000" fill-opacity="1.000000"/>
		<rect id="Rectangle 3 Copy 27" x="37.814453" y="37.876465" width="2.836072" height="2.840729" stroke="#979797" stroke-opacity="0" stroke-width="0.000000"/>
		<rect id="Rectangle 3 Copy 26" x="56.721680" y="37.876465" width="2.836072" height="2.840729" fill="#000000" fill-opacity="1.000000"/>
		<rect id="Rectangle 3 Copy 26" x="56.721680" y="37.876465" width="2.836072" height="2.840729" stroke="#979797" stroke-opacity="0" stroke-width="0.000000"/>
		<rect id="Rectangle 3 Copy 25" x="75.628906" y="37.876465" width="2.836072" height="2.840729" fill="#000000" fill-opacity="1.000000"/>
		<rect id="Rectangle 3 Copy 25" x="75.628906" y="37.876465" width="2.836072" height="2.840729" stroke="#979797" stroke-opacity="0" stroke-width="0.000000"/>
		<rect id="Rectangle 3 Copy 24" x="94.536133" y="37.876465" width="2.836072" height="2.840729" fill="#000000" fill-opacity="1.000000"/>
		<rect id="Rectangle 3 Copy 24" x="94.536133" y="37.876465" width="2.836072" height="2.840729" stroke="#979797" stroke-opacity="0" stroke-width="0.000000"/>
		<rect id="Rectangle 3 Copy 23" x="113.443359" y="37.876465" width="2.836072" height="2.840729" fill="#000000" fill-opacity="1.000000"/>
		<rect id="Rectangle 3 Copy 23" x="113.443359" y="37.876465" width="2.836072" height="2.840729" stroke="#979797" stroke-opacity="0" stroke-width="0.000000"/>
		<rect id="Rectangle 3 Copy 39" y="56.815430" width="2.836072" height="2.840729" fill="#000000" fill-opacity="1.000000"/>
		<rect id="Rectangle 3 Copy 39" y="56.815430" width="2.836072" height="2.840729" stroke="#979797" stroke-opacity="0" stroke-width="0.000000"/>
		<rect id="Rectangle 3 Copy 38" x="18.906250" y="56.815430" width="2.836072" height="2.840729" fill="#000000" fill-opacity="1.000000"/>
		<rect id="Rectangle 3 Copy 38" x="18.906250" y="56.815430" width="2.836072" height="2.840729" stroke="#979797" stroke-opacity="0" stroke-width="0.000000"/>
		<rect id="Rectangle 3 Copy 37" x="37.814453" y="56.815430" width="2.836072" height="2.840729" fill="#000000" fill-opacity="1.000000"/>
		<rect id="Rectangle 3 Copy 37" x="37.814453" y="56.815430" width="2.836072" height="2.840729" stroke="#979797" stroke-opacity="0" stroke-width="0.000000"/>
		<rect id="Rectangle 3 Copy 36" x="56.721680" y="56.815430" width="2.836072" height="2.840729" fill="#000000" fill-opacity="1.000000"/>
		<rect id="Rectangle 3 Copy 36" x="56.721680" y="56.815430" width="2.836072" height="2.840729" stroke="#979797" stroke-opacity="0" stroke-width="0.000000"/>
		<rect id="Rectangle 3 Copy 35" x="75.628906" y="56.815430" width="2.836072" height="2.840729" fill="#000000" fill-opacity="1.000000"/>
		<rect id="Rectangle 3 Copy 35" x="75.628906" y="56.815430" width="2.836072" height="2.840729" stroke="#979797" stroke-opacity="0" stroke-width="0.000000"/>
		<rect id="Rectangle 3 Copy 34" x="94.536133" y="56.815430" width="2.836072" height="2.840729" fill="#000000" fill-opacity="1.000000"/>
		<rect id="Rectangle 3 Copy 34" x="94.536133" y="56.815430" width="2.836072" height="2.840729" stroke="#979797" stroke-opacity="0" stroke-width="0.000000"/>
		<rect id="Rectangle 3 Copy 33" x="113.443359" y="56.815430" width="2.836072" height="2.840729" fill="#000000" fill-opacity="1.000000"/>
		<rect id="Rectangle 3 Copy 33" x="113.443359" y="56.815430" width="2.836072" height="2.840729" stroke="#979797" stroke-opacity="0" stroke-width="0.000000"/>
		<rect id="Rectangle 3 Copy 49" y="75.752686" width="2.836072" height="2.840729" fill="#000000" fill-opacity="1.000000"/>
		<rect id="Rectangle 3 Copy 49" y="75.752686" width="2.836072" height="2.840729" stroke="#979797" stroke-opacity="0" stroke-width="0.000000"/>
		<rect id="Rectangle 3 Copy 48" x="18.906250" y="75.752686" width="2.836072" height="2.840729" fill="#000000" fill-opacity="1.000000"/>
		<rect id="Rectangle 3 Copy 48" x="18.906250" y="75.752686" width="2.836072" height="2.840729" stroke="#979797" stroke-opacity="0" stroke-width="0.000000"/>
		<rect id="Rectangle 3 Copy 47" x="37.814453" y="75.752686" width="2.836072" height="2.840729" fill="#000000" fill-opacity="1.000000"/>
		<rect id="Rectangle 3 Copy 47" x="37.814453" y="75.752686" width="2.836072" height="2.840729" stroke="#979797" stroke-opacity="0" stroke-width="0.000000"/>
		<rect id="Rectangle 3 Copy 46" x="56.721680" y="75.752686" width="2.836072" height="2.840729" fill="#000000" fill-opacity="1.000000"/>
		<rect id="Rectangle 3 Copy 46" x="56.721680" y="75.752686" width="2.836072" height="2.840729" stroke="#979797" stroke-opacity="0" stroke-width="0.000000"/>
		<rect id="Rectangle 3 Copy 45" x="75.628906" y="75.752686" width="2.836072" height="2.840729" fill="#000000" fill-opacity="1.000000"/>
		<rect id="Rectangle 3 Copy 45" x="75.628906" y="75.752686" width="2.836072" height="2.840729" stroke="#979797" stroke-opacity="0" stroke-width="0.000000"/>
		<rect id="Rectangle 3 Copy 44" x="94.536133" y="75.752686" width="2.836072" height="2.840729" fill="#000000" fill-opacity="1.000000"/>
		<rect id="Rectangle 3 Copy 44" x="94.536133" y="75.752686" width="2.836072" height="2.840729" stroke="#979797" stroke-opacity="0" stroke-width="0.000000"/>
		<rect id="Rectangle 3 Copy 43" x="113.443359" y="75.752686" width="2.836072" height="2.840729" fill="#000000" fill-opacity="1.000000"/>
		<rect id="Rectangle 3 Copy 43" x="113.443359" y="75.752686" width="2.836072" height="2.840729" stroke="#979797" stroke-opacity="0" stroke-width="0.000000"/>
		<rect id="Rectangle 3 Copy 59" y="94.691406" width="2.836072" height="2.840729" fill="#000000" fill-opacity="1.000000"/>
		<rect id="Rectangle 3 Copy 59" y="94.691406" width="2.836072" height="2.840729" stroke="#979797" stroke-opacity="0" stroke-width="0.000000"/>
		<rect id="Rectangle 3 Copy 58" x="18.906250" y="94.691406" width="2.836072" height="2.840729" fill="#000000" fill-opacity="1.000000"/>
		<rect id="Rectangle 3 Copy 58" x="18.906250" y="94.691406" width="2.836072" height="2.840729" stroke="#979797" stroke-opacity="0" stroke-width="0.000000"/>
		<rect id="Rectangle 3 Copy 57" x="37.814453" y="94.691406" width="2.836072" height="2.840729" fill="#000000" fill-opacity="1.000000"/>
		<rect id="Rectangle 3 Copy 57" x="37.814453" y="94.691406" width="2.836072" height="2.840729" stroke="#979797" stroke-opacity="0" stroke-width="0.000000"/>
		<rect id="Rectangle 3 Copy 56" x="56.721680" y="94.691406" width="2.836072" height="2.840729" fill="#000000" fill-opacity="1.000000"/>
		<rect id="Rectangle 3 Copy 56" x="56.721680" y="94.691406" width="2.836072" height="2.840729" stroke="#979797" stroke-opacity="0" stroke-width="0.000000"/>
		<rect id="Rectangle 3 Copy 55" x="75.628906" y="94.691406" width="2.836072" height="2.840729" fill="#000000" fill-opacity="1.000000"/>
		<rect id="Rectangle 3 Copy 55" x="75.628906" y="94.691406" width="2.836072" height="2.840729" stroke="#979797" stroke-opacity="0" stroke-width="0.000000"/>
		<rect id="Rectangle 3 Copy 54" x="94.536133" y="94.691406" width="2.836072" height="2.840729" fill="#000000" fill-opacity="1.000000"/>
		<rect id="Rectangle 3 Copy 54" x="94.536133" y="94.691406" width="2.836072" height="2.840729" stroke="#979797" stroke-opacity="0" stroke-width="0.000000"/>
		<rect id="Rectangle 3 Copy 53" x="113.443359" y="94.691406" width="2.836072" height="2.840729" fill="#000000" fill-opacity="1.000000"/>
		<rect id="Rectangle 3 Copy 53" x="113.443359" y="94.691406" width="2.836072" height="2.840729" stroke="#979797" stroke-opacity="0" stroke-width="0.000000"/>
		<rect id="Rectangle 3 Copy 69" y="113.629150" width="2.836072" height="2.840729" fill="#000000" fill-opacity="1.000000"/>
		<rect id="Rectangle 3 Copy 69" y="113.629150" width="2.836072" height="2.840729" stroke="#979797" stroke-opacity="0" stroke-width="0.000000"/>
		<rect id="Rectangle 3 Copy 68" x="18.906250" y="113.629150" width="2.836072" height="2.840729" fill="#000000" fill-opacity="1.000000"/>
		<rect id="Rectangle 3 Copy 68" x="18.906250" y="113.629150" width="2.836072" height="2.840729" stroke="#979797" stroke-opacity="0" stroke-width="0.000000"/>
		<rect id="Rectangle 3 Copy 67" x="37.814453" y="113.629150" width="2.836072" height="2.840729" fill="#000000" fill-opacity="1.000000"/>
		<rect id="Rectangle 3 Copy 67" x="37.814453" y="113.629150" width="2.836072" height="2.840729" stroke="#979797" stroke-opacity="0" stroke-width="0.000000"/>
		<rect id="Rectangle 3 Copy 66" x="56.721680" y="113.629150" width="2.836072" height="2.840729" fill="#000000" fill-opacity="1.000000"/>
		<rect id="Rectangle 3 Copy 66" x="56.721680" y="113.629150" width="2.836072" height="2.840729" stroke="#979797" stroke-opacity="0" stroke-width="0.000000"/>
		<rect id="Rectangle 3 Copy 65" x="75.628906" y="113.629150" width="2.836072" height="2.840729" fill="#000000" fill-opacity="1.000000"/>
		<rect id="Rectangle 3 Copy 65" x="75.628906" y="113.629150" width="2.836072" height="2.840729" stroke="#979797" stroke-opacity="0" stroke-width="0.000000"/>
		<rect id="Rectangle 3 Copy 64" x="94.536133" y="113.629150" width="2.836072" height="2.840729" fill="#000000" fill-opacity="1.000000"/>
		<rect id="Rectangle 3 Copy 64" x="94.536133" y="113.629150" width="2.836072" height="2.840729" stroke="#979797" stroke-opacity="0" stroke-width="0.000000"/>
		<rect id="Rectangle 3 Copy 63" x="113.443359" y="113.629150" width="2.836072" height="2.840729" fill="#000000" fill-opacity="1.000000"/>
		<rect id="Rectangle 3 Copy 63" x="113.443359" y="113.629150" width="2.836072" height="2.840729" stroke="#979797" stroke-opacity="0" stroke-width="0.000000"/>
		<rect id="Rectangle 3 Copy 79" y="132.566895" width="2.836072" height="2.840729" fill="#000000" fill-opacity="1.000000"/>
		<rect id="Rectangle 3 Copy 79" y="132.566895" width="2.836072" height="2.840729" stroke="#979797" stroke-opacity="0" stroke-width="0.000000"/>
		<rect id="Rectangle 3 Copy 78" x="18.906250" y="132.567871" width="2.836072" height="2.840729" fill="#000000" fill-opacity="1.000000"/>
		<rect id="Rectangle 3 Copy 78" x="18.906250" y="132.567871" width="2.836072" height="2.840729" stroke="#979797" stroke-opacity="0" stroke-width="0.000000"/>
		<rect id="Rectangle 3 Copy 77" x="37.814453" y="132.567871" width="2.836072" height="2.840729" fill="#000000" fill-opacity="1.000000"/>
		<rect id="Rectangle 3 Copy 77" x="37.814453" y="132.567871" width="2.836072" height="2.840729" stroke="#979797" stroke-opacity="0" stroke-width="0.000000"/>
		<rect id="Rectangle 3 Copy 76" x="56.721680" y="132.567871" width="2.836072" height="2.840729" fill="#000000" fill-opacity="1.000000"/>
		<rect id="Rectangle 3 Copy 76" x="56.721680" y="132.567871" width="2.836072" height="2.840729" stroke="#979797" stroke-opacity="0" stroke-width="0.000000"/>
		<rect id="Rectangle 3 Copy 75" x="75.628906" y="132.567871" width="2.836072" height="2.840729" fill="#000000" fill-opacity="1.000000"/>
		<rect id="Rectangle 3 Copy 75" x="75.628906" y="132.567871" width="2.836072" height="2.840729" stroke="#979797" stroke-opacity="0" stroke-width="0.000000"/>
		<rect id="Rectangle 3 Copy 74" x="94.536133" y="132.567871" width="2.836072" height="2.840729" fill="#000000" fill-opacity="1.000000"/>
		<rect id="Rectangle 3 Copy 74" x="94.536133" y="132.567871" width="2.836072" height="2.840729" stroke="#979797" stroke-opacity="0" stroke-width="0.000000"/>
		<rect id="Rectangle 3 Copy 73" x="113.443359" y="132.567871" width="2.836072" height="2.840729" fill="#000000" fill-opacity="1.000000"/>
		<rect id="Rectangle 3 Copy 73" x="113.443359" y="132.567871" width="2.836072" height="2.840729" stroke="#979797" stroke-opacity="0" stroke-width="0.000000"/>
		<rect id="Rectangle 3 Copy 89" y="151.505615" width="2.836072" height="2.840729" fill="#000000" fill-opacity="1.000000"/>
		<rect id="Rectangle 3 Copy 89" y="151.505615" width="2.836072" height="2.840729" stroke="#979797" stroke-opacity="0" stroke-width="0.000000"/>
		<rect id="Rectangle 3 Copy 88" x="18.906250" y="151.505615" width="2.836072" height="2.840729" fill="#000000" fill-opacity="1.000000"/>
		<rect id="Rectangle 3 Copy 88" x="18.906250" y="151.505615" width="2.836072" height="2.840729" stroke="#979797" stroke-opacity="0" stroke-width="0.000000"/>
		<rect id="Rectangle 3 Copy 87" x="37.814453" y="151.505615" width="2.836072" height="2.840729" fill="#000000" fill-opacity="1.000000"/>
		<rect id="Rectangle 3 Copy 87" x="37.814453" y="151.505615" width="2.836072" height="2.840729" stroke="#979797" stroke-opacity="0" stroke-width="0.000000"/>
		<rect id="Rectangle 3 Copy 86" x="56.721680" y="151.505615" width="2.836072" height="2.840729" fill="#000000" fill-opacity="1.000000"/>
		<rect id="Rectangle 3 Copy 86" x="56.721680" y="151.505615" width="2.836072" height="2.840729" stroke="#979797" stroke-opacity="0" stroke-width="0.000000"/>
		<rect id="Rectangle 3 Copy 85" x="75.628906" y="151.505615" width="2.836072" height="2.840729" fill="#000000" fill-opacity="1.000000"/>
		<rect id="Rectangle 3 Copy 85" x="75.628906" y="151.505615" width="2.836072" height="2.840729" stroke="#979797" stroke-opacity="0" stroke-width="0.000000"/>
		<rect id="Rectangle 3 Copy 84" x="94.536133" y="151.505615" width="2.836072" height="2.840729" fill="#000000" fill-opacity="1.000000"/>
		<rect id="Rectangle 3 Copy 84" x="94.536133" y="151.505615" width="2.836072" height="2.840729" stroke="#979797" stroke-opacity="0" stroke-width="0.000000"/>
		<rect id="Rectangle 3 Copy 83" x="113.443359" y="151.505615" width="2.836072" height="2.840729" fill="#000000" fill-opacity="1.000000"/>
		<rect id="Rectangle 3 Copy 83" x="113.443359" y="151.505615" width="2.836072" height="2.840729" stroke="#979797" stroke-opacity="0" stroke-width="0.000000"/>
		<rect id="Rectangle 3 Copy 99" y="170.443359" width="2.836072" height="2.840729" fill="#000000" fill-opacity="1.000000"/>
		<rect id="Rectangle 3 Copy 99" y="170.443359" width="2.836072" height="2.840729" stroke="#979797" stroke-opacity="0" stroke-width="0.000000"/>
		<rect id="Rectangle 3 Copy 98" x="18.906250" y="170.443359" width="2.836072" height="2.840729" fill="#000000" fill-opacity="1.000000"/>
		<rect id="Rectangle 3 Copy 98" x="18.906250" y="170.443359" width="2.836072" height="2.840729" stroke="#979797" stroke-opacity="0" stroke-width="0.000000"/>
		<rect id="Rectangle 3 Copy 97" x="37.814453" y="170.443359" width="2.836072" height="2.840729" fill="#000000" fill-opacity="1.000000"/>
		<rect id="Rectangle 3 Copy 97" x="37.814453" y="170.443359" width="2.836072" height="2.840729" stroke="#979797" stroke-opacity="0" stroke-width="0.000000"/>
		<rect id="Rectangle 3 Copy 96" x="56.721680" y="170.443359" width="2.836072" height="2.840729" fill="#000000" fill-opacity="1.000000"/>
		<rect id="Rectangle 3 Copy 96" x="56.721680" y="170.443359" width="2.836072" height="2.840729" stroke="#979797" stroke-opacity="0" stroke-width="0.000000"/>
		<rect id="Rectangle 3 Copy 95" x="75.628906" y="170.443359" width="2.836072" height="2.840729" fill="#000000" fill-opacity="1.000000"/>
		<rect id="Rectangle 3 Copy 95" x="75.628906" y="170.443359" width="2.836072" height="2.840729" stroke="#979797" stroke-opacity="0" stroke-width="0.000000"/>
		<rect id="Rectangle 3 Copy 94" x="94.536133" y="170.443359" width="2.836072" height="2.840729" fill="#000000" fill-opacity="1.000000"/>
		<rect id="Rectangle 3 Copy 94" x="94.536133" y="170.443359" width="2.836072" height="2.840729" stroke="#979797" stroke-opacity="0" stroke-width="0.000000"/>
		<rect id="Rectangle 3 Copy 93" x="113.443359" y="170.443359" width="2.836072" height="2.840729" fill="#000000" fill-opacity="1.000000"/>
		<rect id="Rectangle 3 Copy 93" x="113.443359" y="170.443359" width="2.836072" height="2.840729" stroke="#979797" stroke-opacity="0" stroke-width="0.000000"/>
		<rect id="Rectangle 3 Copy 109" y="189.382080" width="2.836072" height="2.840729" fill="#000000" fill-opacity="1.000000"/>
		<rect id="Rectangle 3 Copy 109" y="189.382080" width="2.836072" height="2.840729" stroke="#979797" stroke-opacity="0" stroke-width="0.000000"/>
		<rect id="Rectangle 3 Copy 108" x="18.906250" y="189.383301" width="2.836072" height="2.840729" fill="#000000" fill-opacity="1.000000"/>
		<rect id="Rectangle 3 Copy 108" x="18.906250" y="189.383301" width="2.836072" height="2.840729" stroke="#979797" stroke-opacity="0" stroke-width="0.000000"/>
		<rect id="Rectangle 3 Copy 107" x="37.814453" y="189.383301" width="2.836072" height="2.840729" fill="#000000" fill-opacity="1.000000"/>
		<rect id="Rectangle 3 Copy 107" x="37.814453" y="189.383301" width="2.836072" height="2.840729" stroke="#979797" stroke-opacity="0" stroke-width="0.000000"/>
		<rect id="Rectangle 3 Copy 106" x="56.721680" y="189.383301" width="2.836072" height="2.840729" fill="#000000" fill-opacity="1.000000"/>
		<rect id="Rectangle 3 Copy 106" x="56.721680" y="189.383301" width="2.836072" height="2.840729" stroke="#979797" stroke-opacity="0" stroke-width="0.000000"/>
		<rect id="Rectangle 3 Copy 105" x="75.628906" y="189.383301" width="2.836072" height="2.840729" fill="#000000" fill-opacity="1.000000"/>
		<rect id="Rectangle 3 Copy 105" x="75.628906" y="189.383301" width="2.836072" height="2.840729" stroke="#979797" stroke-opacity="0" stroke-width="0.000000"/>
		<rect id="Rectangle 3 Copy 104" x="94.536133" y="189.383301" width="2.836072" height="2.840729" fill="#000000" fill-opacity="1.000000"/>
		<rect id="Rectangle 3 Copy 104" x="94.536133" y="189.383301" width="2.836072" height="2.840729" stroke="#979797" stroke-opacity="0" stroke-width="0.000000"/>
		<rect id="Rectangle 3 Copy 103" x="113.443359" y="189.383301" width="2.836072" height="2.840729" fill="#000000" fill-opacity="1.000000"/>
		<rect id="Rectangle 3 Copy 103" x="113.443359" y="189.383301" width="2.836072" height="2.840729" stroke="#979797" stroke-opacity="0" stroke-width="0.000000"/>
	</g>
</svg>
