<svg width="173" height="192.224" fill="none" xmlns="http://www.w3.org/2000/svg"><g opacity=".5" style="mix-blend-mode:normal"><path fill="#000" d="M0 0h2.836v2.841H0z"/><path d="M0 0h2.836v2.841H0z"/><path fill="#000" d="M18.906 0h2.836v2.841h-2.836z"/><path d="M18.906 0h2.836v2.841h-2.836z"/><path fill="#000" d="M37.814 0h2.836v2.841h-2.836z"/><path d="M37.814 0h2.836v2.841h-2.836z"/><path fill="#000" d="M56.722 0h2.836v2.841h-2.836z"/><path d="M56.722 0h2.836v2.841h-2.836z"/><path fill="#000" d="M75.629 0h2.836v2.841h-2.836z"/><path d="M75.629 0h2.836v2.841h-2.836z"/><path fill="#000" d="M94.536 0h2.836v2.841h-2.836z"/><path d="M94.536 0h2.836v2.841h-2.836z"/><path fill="#000" d="M113.443 0h2.836v2.841h-2.836z"/><path d="M113.443 0h2.836v2.841h-2.836z"/><path fill="#000" d="M132.351 0h2.836v2.841h-2.836z"/><path d="M132.351 0h2.836v2.841h-2.836z"/><path fill="#000" d="M151.258 0h2.836v2.841h-2.836z"/><path d="M151.258 0h2.836v2.841h-2.836z"/><path fill="#000" d="M170.164 0H173v2.841h-2.836z"/><path d="M170.164 0H173v2.841h-2.836z"/><path fill="#000" d="M0 18.938h2.836v2.841H0z"/><path d="M0 18.938h2.836v2.841H0z"/><path fill="#000" d="M18.906 18.938h2.836v2.841h-2.836z"/><path d="M18.906 18.938h2.836v2.841h-2.836z"/><path fill="#000" d="M37.814 18.938h2.836v2.841h-2.836z"/><path d="M37.814 18.938h2.836v2.841h-2.836z"/><path fill="#000" d="M56.722 18.938h2.836v2.841h-2.836z"/><path d="M56.722 18.938h2.836v2.841h-2.836z"/><path fill="#000" d="M75.629 18.938h2.836v2.841h-2.836z"/><path d="M75.629 18.938h2.836v2.841h-2.836z"/><path fill="#000" d="M94.536 18.938h2.836v2.841h-2.836z"/><path d="M94.536 18.938h2.836v2.841h-2.836z"/><path fill="#000" d="M113.443 18.938h2.836v2.841h-2.836z"/><path d="M113.443 18.938h2.836v2.841h-2.836z"/><path fill="#000" d="M132.351 18.938h2.836v2.841h-2.836z"/><path d="M132.351 18.938h2.836v2.841h-2.836z"/><path fill="#000" d="M151.258 18.938h2.836v2.841h-2.836z"/><path d="M151.258 18.938h2.836v2.841h-2.836z"/><path fill="#000" d="M170.164 18.938H173v2.841h-2.836z"/><path d="M170.164 18.938H173v2.841h-2.836z"/><path fill="#000" d="M0 37.876h2.836v2.841H0z"/><path d="M0 37.876h2.836v2.841H0z"/><path fill="#000" d="M18.906 37.876h2.836v2.841h-2.836z"/><path d="M18.906 37.876h2.836v2.841h-2.836z"/><path fill="#000" d="M37.814 37.876h2.836v2.841h-2.836z"/><path d="M37.814 37.876h2.836v2.841h-2.836z"/><path fill="#000" d="M56.722 37.876h2.836v2.841h-2.836z"/><path d="M56.722 37.876h2.836v2.841h-2.836z"/><path fill="#000" d="M75.629 37.876h2.836v2.841h-2.836z"/><path d="M75.629 37.876h2.836v2.841h-2.836z"/><path fill="#000" d="M94.536 37.876h2.836v2.841h-2.836z"/><path d="M94.536 37.876h2.836v2.841h-2.836z"/><path fill="#000" d="M113.443 37.876h2.836v2.841h-2.836z"/><path d="M113.443 37.876h2.836v2.841h-2.836z"/><path fill="#000" d="M132.351 37.876h2.836v2.841h-2.836z"/><path d="M132.351 37.876h2.836v2.841h-2.836z"/><path fill="#000" d="M151.258 37.876h2.836v2.841h-2.836z"/><path d="M151.258 37.876h2.836v2.841h-2.836z"/><path fill="#000" d="M170.164 37.876H173v2.841h-2.836z"/><path d="M170.164 37.876H173v2.841h-2.836z"/><path fill="#000" d="M0 56.815h2.836v2.841H0z"/><path d="M0 56.815h2.836v2.841H0z"/><path fill="#000" d="M18.906 56.815h2.836v2.841h-2.836z"/><path d="M18.906 56.815h2.836v2.841h-2.836z"/><path fill="#000" d="M37.814 56.815h2.836v2.841h-2.836z"/><path d="M37.814 56.815h2.836v2.841h-2.836z"/><path fill="#000" d="M56.722 56.815h2.836v2.841h-2.836z"/><path d="M56.722 56.815h2.836v2.841h-2.836z"/><path fill="#000" d="M75.629 56.815h2.836v2.841h-2.836z"/><path d="M75.629 56.815h2.836v2.841h-2.836z"/><path fill="#000" d="M94.536 56.815h2.836v2.841h-2.836z"/><path d="M94.536 56.815h2.836v2.841h-2.836z"/><path fill="#000" d="M113.443 56.815h2.836v2.841h-2.836z"/><path d="M113.443 56.815h2.836v2.841h-2.836z"/><path fill="#000" d="M132.351 56.815h2.836v2.841h-2.836z"/><path d="M132.351 56.815h2.836v2.841h-2.836z"/><path fill="#000" d="M151.258 56.815h2.836v2.841h-2.836z"/><path d="M151.258 56.815h2.836v2.841h-2.836z"/><path fill="#000" d="M170.164 56.815H173v2.841h-2.836z"/><path d="M170.164 56.815H173v2.841h-2.836z"/><path fill="#000" d="M0 75.753h2.836v2.841H0z"/><path d="M0 75.753h2.836v2.841H0z"/><path fill="#000" d="M18.906 75.753h2.836v2.841h-2.836z"/><path d="M18.906 75.753h2.836v2.841h-2.836z"/><path fill="#000" d="M37.814 75.753h2.836v2.841h-2.836z"/><path d="M37.814 75.753h2.836v2.841h-2.836z"/><path fill="#000" d="M56.722 75.753h2.836v2.841h-2.836z"/><path d="M56.722 75.753h2.836v2.841h-2.836z"/><path fill="#000" d="M75.629 75.753h2.836v2.841h-2.836z"/><path d="M75.629 75.753h2.836v2.841h-2.836z"/><path fill="#000" d="M94.536 75.753h2.836v2.841h-2.836z"/><path d="M94.536 75.753h2.836v2.841h-2.836z"/><path fill="#000" d="M113.443 75.753h2.836v2.841h-2.836z"/><path d="M113.443 75.753h2.836v2.841h-2.836z"/><path fill="#000" d="M132.351 75.753h2.836v2.841h-2.836z"/><path d="M132.351 75.753h2.836v2.841h-2.836z"/><path fill="#000" d="M151.258 75.753h2.836v2.841h-2.836z"/><path d="M151.258 75.753h2.836v2.841h-2.836z"/><path fill="#000" d="M170.164 75.753H173v2.841h-2.836z"/><path d="M170.164 75.753H173v2.841h-2.836z"/><path fill="#000" d="M0 94.691h2.836v2.841H0z"/><path d="M0 94.691h2.836v2.841H0z"/><path fill="#000" d="M18.906 94.691h2.836v2.841h-2.836z"/><path d="M18.906 94.691h2.836v2.841h-2.836z"/><path fill="#000" d="M37.814 94.691h2.836v2.841h-2.836z"/><path d="M37.814 94.691h2.836v2.841h-2.836z"/><path fill="#000" d="M56.722 94.691h2.836v2.841h-2.836z"/><path d="M56.722 94.691h2.836v2.841h-2.836z"/><path fill="#000" d="M75.629 94.691h2.836v2.841h-2.836z"/><path d="M75.629 94.691h2.836v2.841h-2.836z"/><path fill="#000" d="M94.536 94.691h2.836v2.841h-2.836z"/><path d="M94.536 94.691h2.836v2.841h-2.836z"/><path fill="#000" d="M113.443 94.691h2.836v2.841h-2.836z"/><path d="M113.443 94.691h2.836v2.841h-2.836z"/><path fill="#000" d="M132.351 94.691h2.836v2.841h-2.836z"/><path d="M132.351 94.691h2.836v2.841h-2.836z"/><path fill="#000" d="M151.258 94.691h2.836v2.841h-2.836z"/><path d="M151.258 94.691h2.836v2.841h-2.836z"/><path fill="#000" d="M170.164 94.691H173v2.841h-2.836z"/><path d="M170.164 94.691H173v2.841h-2.836z"/><path fill="#000" d="M0 113.629h2.836v2.841H0z"/><path d="M0 113.629h2.836v2.841H0z"/><path fill="#000" d="M18.906 113.629h2.836v2.841h-2.836z"/><path d="M18.906 113.629h2.836v2.841h-2.836z"/><path fill="#000" d="M37.814 113.629h2.836v2.841h-2.836z"/><path d="M37.814 113.629h2.836v2.841h-2.836z"/><path fill="#000" d="M56.722 113.629h2.836v2.841h-2.836z"/><path d="M56.722 113.629h2.836v2.841h-2.836z"/><path fill="#000" d="M75.629 113.629h2.836v2.841h-2.836z"/><path d="M75.629 113.629h2.836v2.841h-2.836z"/><path fill="#000" d="M94.536 113.629h2.836v2.841h-2.836z"/><path d="M94.536 113.629h2.836v2.841h-2.836z"/><path fill="#000" d="M113.443 113.629h2.836v2.841h-2.836z"/><path d="M113.443 113.629h2.836v2.841h-2.836z"/><path fill="#000" d="M132.351 113.629h2.836v2.841h-2.836z"/><path d="M132.351 113.629h2.836v2.841h-2.836z"/><path fill="#000" d="M151.258 113.629h2.836v2.841h-2.836z"/><path d="M151.258 113.629h2.836v2.841h-2.836z"/><path fill="#000" d="M170.164 113.629H173v2.841h-2.836z"/><path d="M170.164 113.629H173v2.841h-2.836z"/><path fill="#000" d="M0 132.567h2.836v2.841H0z"/><path d="M0 132.567h2.836v2.841H0z"/><path fill="#000" d="M18.906 132.568h2.836v2.841h-2.836z"/><path d="M18.906 132.568h2.836v2.841h-2.836z"/><path fill="#000" d="M37.814 132.568h2.836v2.841h-2.836z"/><path d="M37.814 132.568h2.836v2.841h-2.836z"/><path fill="#000" d="M56.722 132.568h2.836v2.841h-2.836z"/><path d="M56.722 132.568h2.836v2.841h-2.836z"/><path fill="#000" d="M75.629 132.568h2.836v2.841h-2.836z"/><path d="M75.629 132.568h2.836v2.841h-2.836z"/><path fill="#000" d="M94.536 132.568h2.836v2.841h-2.836z"/><path d="M94.536 132.568h2.836v2.841h-2.836z"/><path fill="#000" d="M113.443 132.568h2.836v2.841h-2.836z"/><path d="M113.443 132.568h2.836v2.841h-2.836z"/><path fill="#000" d="M132.351 132.568h2.836v2.841h-2.836z"/><path d="M132.351 132.568h2.836v2.841h-2.836z"/><path fill="#000" d="M151.258 132.568h2.836v2.841h-2.836z"/><path d="M151.258 132.568h2.836v2.841h-2.836z"/><path fill="#000" d="M170.164 132.568H173v2.841h-2.836z"/><path d="M170.164 132.568H173v2.841h-2.836z"/><path fill="#000" d="M0 151.506h2.836v2.841H0z"/><path d="M0 151.506h2.836v2.841H0z"/><path fill="#000" d="M18.906 151.506h2.836v2.841h-2.836z"/><path d="M18.906 151.506h2.836v2.841h-2.836z"/><path fill="#000" d="M37.814 151.506h2.836v2.841h-2.836z"/><path d="M37.814 151.506h2.836v2.841h-2.836z"/><path fill="#000" d="M56.722 151.506h2.836v2.841h-2.836z"/><path d="M56.722 151.506h2.836v2.841h-2.836z"/><path fill="#000" d="M75.629 151.506h2.836v2.841h-2.836z"/><path d="M75.629 151.506h2.836v2.841h-2.836z"/><path fill="#000" d="M94.536 151.506h2.836v2.841h-2.836z"/><path d="M94.536 151.506h2.836v2.841h-2.836z"/><path fill="#000" d="M113.443 151.506h2.836v2.841h-2.836z"/><path d="M113.443 151.506h2.836v2.841h-2.836z"/><path fill="#000" d="M132.351 151.506h2.836v2.841h-2.836z"/><path d="M132.351 151.506h2.836v2.841h-2.836z"/><path fill="#000" d="M151.258 151.506h2.836v2.841h-2.836z"/><path d="M151.258 151.506h2.836v2.841h-2.836z"/><path fill="#000" d="M170.164 151.506H173v2.841h-2.836z"/><path d="M170.164 151.506H173v2.841h-2.836z"/><path fill="#000" d="M0 170.443h2.836v2.841H0z"/><path d="M0 170.443h2.836v2.841H0z"/><path fill="#000" d="M18.906 170.443h2.836v2.841h-2.836z"/><path d="M18.906 170.443h2.836v2.841h-2.836z"/><path fill="#000" d="M37.814 170.443h2.836v2.841h-2.836z"/><path d="M37.814 170.443h2.836v2.841h-2.836z"/><path fill="#000" d="M56.722 170.443h2.836v2.841h-2.836z"/><path d="M56.722 170.443h2.836v2.841h-2.836z"/><path fill="#000" d="M75.629 170.443h2.836v2.841h-2.836z"/><path d="M75.629 170.443h2.836v2.841h-2.836z"/><path fill="#000" d="M94.536 170.443h2.836v2.841h-2.836z"/><path d="M94.536 170.443h2.836v2.841h-2.836z"/><path fill="#000" d="M113.443 170.443h2.836v2.841h-2.836z"/><path d="M113.443 170.443h2.836v2.841h-2.836z"/><path fill="#000" d="M132.351 170.443h2.836v2.841h-2.836z"/><path d="M132.351 170.443h2.836v2.841h-2.836z"/><path fill="#000" d="M151.258 170.443h2.836v2.841h-2.836z"/><path d="M151.258 170.443h2.836v2.841h-2.836z"/><path fill="#000" d="M170.164 170.443H173v2.841h-2.836z"/><path d="M170.164 170.443H173v2.841h-2.836z"/><path fill="#000" d="M0 189.382h2.836v2.841H0z"/><path d="M0 189.382h2.836v2.841H0z"/><path fill="#000" d="M18.906 189.383h2.836v2.841h-2.836z"/><path d="M18.906 189.383h2.836v2.841h-2.836z"/><path fill="#000" d="M37.814 189.383h2.836v2.841h-2.836z"/><path d="M37.814 189.383h2.836v2.841h-2.836z"/><path fill="#000" d="M56.722 189.383h2.836v2.841h-2.836z"/><path d="M56.722 189.383h2.836v2.841h-2.836z"/><path fill="#000" d="M75.629 189.383h2.836v2.841h-2.836z"/><path d="M75.629 189.383h2.836v2.841h-2.836z"/><path fill="#000" d="M94.536 189.383h2.836v2.841h-2.836z"/><path d="M94.536 189.383h2.836v2.841h-2.836z"/><path fill="#000" d="M113.443 189.383h2.836v2.841h-2.836z"/><path d="M113.443 189.383h2.836v2.841h-2.836z"/><path fill="#000" d="M132.351 189.383h2.836v2.841h-2.836z"/><path d="M132.351 189.383h2.836v2.841h-2.836z"/><path fill="#000" d="M151.258 189.383h2.836v2.841h-2.836z"/><path d="M151.258 189.383h2.836v2.841h-2.836z"/><path fill="#000" d="M170.164 189.383H173v2.841h-2.836z"/><path d="M170.164 189.383H173v2.841h-2.836z"/></g></svg>