<svg width="53" height="53" fill="none" xmlns="http://www.w3.org/2000/svg"><path d="M46.92 36.12c-1.94 0-2.8-.75-4.02-1.81-1.34-1.15-3.02-2.6-6.18-2.6-3.18 0-4.84 1.45-6.18 2.6-1.22 1.06-2.1 1.81-4.04 1.81-1.93 0-2.81-.75-4.02-1.81-1.35-1.15-3.03-2.6-6.19-2.6-3.18 0-4.86 1.45-6.2 2.6-1.22 1.06-2.08 1.81-4.02 1.81-.91 0-1.66.75-1.66 1.66 0 .93.75 1.66 1.66 1.66 3.18 0 4.83-1.44 6.18-2.61 1.22-1.06 2.1-1.81 4.04-1.81 1.95 0 2.81.75 4.02 1.81 1.35 1.17 3.03 2.61 6.19 2.61 3.18 0 4.85-1.44 6.2-2.61 1.21-1.06 2.08-1.81 4.02-1.81 1.92 0 2.8.75 4.02 1.81 1.35 1.17 3.02 2.61 6.18 2.61.91 0 1.66-.73 1.66-1.66 0-.91-.75-1.66-1.66-1.66ZM46.92 27.03c-1.94 0-2.8-.78-4.02-1.82-1.34-1.17-3.02-2.6-6.18-2.6-3.18 0-4.84 1.43-6.18 2.6-1.22 1.04-2.1 1.82-4.04 1.82-1.93 0-2.81-.78-4.02-1.82-1.35-1.17-3.03-2.6-6.19-2.6-3.18 0-4.86 1.43-6.2 2.6-1.22 1.04-2.08 1.82-4.02 1.82-.91 0-1.66.72-1.66 1.65 0 .91.75 1.66 1.66 1.66 3.18 0 4.83-1.46 6.18-2.63 1.22-1.04 2.1-1.79 4.04-1.79 1.95 0 2.81.75 4.02 1.79 1.35 1.17 3.03 2.63 6.19 2.63 3.18 0 4.85-1.46 6.2-2.63 1.21-1.04 2.08-1.79 4.02-1.79 1.92 0 2.8.75 4.02 1.79 1.35 1.17 3.02 2.63 6.18 2.63.91 0 1.66-.75 1.66-1.66 0-.93-.75-1.65-1.66-1.65ZM6.07 21.28c3.18 0 4.83-1.45 6.18-2.6 1.22-1.06 2.1-1.81 4.04-1.81 1.95 0 2.81.75 4.02 1.81 1.35 1.15 3.03 2.6 6.19 2.6 3.18 0 4.85-1.45 6.2-2.6 1.21-1.06 2.08-1.81 4.02-1.81 1.92 0 2.8.75 4.02 1.81 1.35 1.15 3.02 2.6 6.18 2.6.91 0 1.66-.75 1.66-1.65 0-.93-.75-1.66-1.66-1.66-1.94 0-2.8-.75-4.02-1.81-1.34-1.17-3.02-2.61-6.18-2.61-3.18 0-4.84 1.44-6.18 2.61-1.22 1.06-2.1 1.81-4.04 1.81-1.93 0-2.81-.75-4.02-1.81-1.35-1.17-3.03-2.61-6.19-2.61-3.18 0-4.86 1.44-6.2 2.61-1.22 1.06-2.08 1.81-4.02 1.81-.91 0-1.66.73-1.66 1.66 0 .9.75 1.65 1.66 1.65Z" fill="#141416"/></svg>