<svg width="88" height="28" fill="none" xmlns="http://www.w3.org/2000/svg"><path d="M17.4 7.54q.39.21.9.21.53 0 .93-.22.21-.12.39-.28.24-.23.37-.52.15-.33.15-.73 0-.42-.16-.75-.13-.28-.36-.5-.18-.17-.39-.28-.4-.22-.93-.22-.51 0-.9.2-.22.12-.41.3-.23.22-.36.48-.16.35-.16.77 0 .41.15.75.13.27.37.5.19.17.41.29Zm33.65 13.07q1.25.54 2.81.54 1.64 0 2.83-.61 1.06-.54 1.66-1.4.09-.11.16-.24.32-.53.48-1.1.14-.54.14-1.12 0-1.39-.66-2.24-.5-.65-1.14-1.05-.21-.13-.44-.23-.92-.43-2.37-.86-1.07-.32-1.66-.57-.58-.24-.98-.63-.15-.16-.25-.34-.15-.29-.15-.66 0-.68.33-1.1.09-.11.2-.21.02-.02.05-.04.52-.4 1.35-.4.96 0 1.56.46.02.02.05.04.33.27.49.62.14.3.16.65h3.29q-.09-1.29-.73-2.22-.35-.51-.86-.91-.01-.01-.02-.01-1.44-1.11-3.73-1.11-1.54 0-2.74.53-.94.41-1.55 1.11-.16.18-.3.39-.12.18-.22.37-.45.85-.45 1.94 0 1.41.66 2.25.5.65 1.15 1.05.2.11.41.21.9.42 2.36.84 1.06.3 1.67.55.61.25 1.02.67.12.13.2.27.21.35.21.82 0 .45-.18.8-.15.29-.42.52-.6.5-1.65.5-.96 0-1.54-.47-.04-.03-.07-.06-.14-.13-.25-.28-.35-.48-.4-1.18h-3.21q.02 1.04.44 1.88.14.26.31.5.13.18.28.34.68.75 1.7 1.19ZM10.82 7q-1.79-.92-4.14-.92H1.47V21h5.21q2.35 0 4.14-.92 1.09-.57 1.88-1.41.5-.54.87-1.19.97-1.67.97-3.92 0-2.21-.94-3.89-.01-.03-.03-.05-.41-.72-.97-1.3-.76-.79-1.78-1.32Zm-.88 10.42q-1.25 1.03-3.36 1.03H4.46V8.6h2.12q2.05 0 3.29 1 .18.15.34.32.15.15.28.31 1 1.27 1 3.33 0 2.07-1.01 3.31-.13.16-.27.3-.13.13-.27.25Zm36.5-1.45q.09-.51.09-1.15 0-1.69-.7-2.99l-.04-.08q-.38-.68-.91-1.2-.51-.5-1.16-.86-.13-.06-.25-.12-1.24-.6-2.77-.6-1.72 0-3.04.71l-.06.04q-.57.31-1.03.74-.63.59-1.07 1.39-.75 1.39-.75 3.22 0 1.83.76 3.21.43.78 1.04 1.36.48.45 1.08.79.18.1.36.19 1.22.57 2.71.57 1.79 0 3.1-.79.24-.15.46-.31.8-.61 1.32-1.41.42-.64.65-1.4H43q-.33.66-.86 1.02-.61.41-1.51.41-.74 0-1.33-.3-.33-.16-.62-.42-.13-.13-.25-.28-.55-.68-.64-1.74h8.65Zm26.2 0q.08-.51.08-1.15 0-1.69-.7-2.99l-.04-.08q-.38-.68-.91-1.2-.51-.5-1.16-.86-.12-.06-.25-.12-1.24-.6-2.77-.6-1.71 0-3.04.71l-.06.04q-.57.31-1.03.74-.63.59-1.07 1.39-.74 1.39-.74 3.22 0 1.83.75 3.21.43.78 1.04 1.36.48.45 1.08.79.18.1.36.19 1.22.57 2.71.57 1.79 0 3.11-.79.23-.15.45-.31.81-.61 1.33-1.41.41-.64.64-1.4h-3.23q-.32.66-.86 1.02-.61.41-1.5.41-.75 0-1.34-.3-.33-.16-.61-.42-.14-.13-.26-.28-.55-.68-.64-1.74h8.66Zm2.2-4.12q-.71 1.39-.71 3.18 0 1.82.71 3.22.57 1.1 1.45 1.82.24.19.5.35.5.31 1.04.5.8.27 1.68.27 1.33 0 2.34-.54 1.02-.55 1.6-1.39V21h3.01V9.16h-3.01v1.68q-.6-.8-1.6-1.34-.99-.53-2.32-.53-1 0-1.88.33-.44.16-.86.42-.26.16-.5.34-.88.7-1.45 1.79ZM19.78 21V9.16h-2.99V21h2.99ZM30.65 9.16l-2.99 9.08-2.99-9.08h-3.2L25.83 21h3.63l4.38-11.84h-3.19Zm12.46 3.57q.31.53.32 1.23h-5.62q.15-1.01.72-1.65.1-.11.21-.21.24-.22.52-.36.59-.32 1.35-.32.83 0 1.48.35.27.14.5.35.32.27.52.61Zm26.19 0q.31.53.32 1.23H64q.15-1.01.72-1.65.1-.11.21-.21.24-.22.52-.36.59-.32 1.35-.32.83 0 1.48.35.27.14.51.35.31.27.51.61Zm13.72.48q.43.78.43 1.86 0 1.1-.43 1.88-.3.54-.75.91-.19.16-.4.28-.37.21-.77.32-.38.1-.79.1-.34 0-.67-.08-.45-.1-.86-.35-.13-.08-.26-.17-.54-.4-.9-1.05-.43-.81-.43-1.88 0-1.07.43-1.84.37-.66.93-1.05.1-.07.22-.14.28-.16.59-.26.45-.14.95-.14.41 0 .79.1.4.1.77.31.2.12.38.27.46.37.77.93Z" fill="#000" fill-rule="evenodd"/></svg>