<svg width="25.87" height="25.87" fill="none" xmlns="http://www.w3.org/2000/svg"><defs><clipPath id="a"><rect rx="0" width="24.792" height="24.792" transform="translate(.539 .539)" fill="#fff" fill-opacity="0"/></clipPath></defs><g clip-path="url(#a)"><path d="M15.18 7.83c.44-.41 1.12-.38 1.53.06l3.48 3.77c.38.41.38 1.05 0 1.46l-3.48 3.77c-.41.44-1.09.47-1.53.07-.43-.41-.46-1.09-.06-1.53l1.82-1.96H6.46c-.59 0-1.08-.48-1.08-1.08 0-.59.49-1.08 1.08-1.08h10.48l-1.82-1.96c-.4-.44-.37-1.12.06-1.52Z" fill="#23262F" fill-rule="evenodd"/></g></svg>