<svg width="21.192" height="21.193" fill="none" xmlns="http://www.w3.org/2000/svg"><circle cx="10.597" cy="10.596" r="10.596" fill="#FFF"/><path d="M8.79 7.24q-.49.63-.53 1.62h1.93q.03-.36.21-.61.02-.02.04-.05.04-.05.09-.09.2-.17.56-.17.34 0 .56.16.04.03.08.07.03.03.05.06.18.22.18.59t-.19.58q-.07.08-.18.14-.36.2-.95.2h-.37v1.61h.37q.77 0 1.13.25.07.05.13.12.22.25.22.68 0 .35-.16.58-.04.06-.09.11-.04.04-.08.07-.24.19-.62.19-.47 0-.75-.24-.03-.02-.06-.05-.02-.03-.05-.06-.23-.29-.24-.75H8.15q.04 1.16.63 1.82.11.13.25.24.83.68 2.21.68.87 0 1.5-.31.5-.25.81-.65.08-.1.15-.21.04-.07.08-.15.25-.49.25-1.12 0-.79-.38-1.3h-.01q-.1-.14-.22-.26-.33-.31-.81-.47v-.05l.1-.04q.44-.18.78-.61.02-.02.04-.05.35-.47.35-1.2 0-.45-.16-.84-.06-.16-.16-.32-.05-.08-.1-.15-.31-.42-.84-.67-.62-.31-1.48-.31-1.24 0-2 .61-.04.03-.07.07-.15.13-.28.28Z" fill="#141416" fill-rule="evenodd"/></svg>