<svg width="21.125" height="21.125" fill="none" xmlns="http://www.w3.org/2000/svg"><circle cx="10.563" cy="10.563" r="10.563" fill="#FFF"/><path d="m8.7 13.05-.36.29v1.46h5.78v-1.6h-3.11q1.3-1 2.14-2.06.6-.74.77-1.57.08-.35.08-.71 0-.82-.37-1.41-.14-.23-.33-.43l-.04-.04q-.7-.66-2.03-.66-.77 0-1.41.29l-.04.02q-.2.1-.37.23-.4.29-.68.74-.39.66-.41 1.64h1.89q0-.6.25-.93.11-.15.25-.23.19-.1.44-.1.35 0 .56.17.05.04.09.1.22.26.22.73 0 .62-.45 1.28-.44.66-1.1 1.26-.65.6-1.77 1.53Z" fill="#141416" fill-rule="evenodd"/></svg>