<svg width="98.482" height="24.178" fill="none" xmlns="http://www.w3.org/2000/svg"><path d="M25.88 8.56h9.96v1.86h-3.92v10.45h-2.15V10.42h-3.91l.02-1.86Zm9.54 3.4h1.83v1.72h.04c.06-.24.18-.47.34-.7.17-.23.36-.44.61-.63.23-.19.49-.34.79-.45.28-.12.57-.18.87-.18.23 0 .39.01.47.01.09.02.18.03.27.03v1.89c-.14-.03-.28-.05-.43-.06-.15-.02-.28-.04-.43-.04-.33 0-.64.07-.93.2-.3.13-.55.33-.77.58-.22.26-.4.57-.53.95-.13.37-.2.82-.2 1.31v4.24h-1.97l.04-8.87Zm14.24 8.91h-1.93v-1.24h-.04c-.24.45-.6.8-1.08 1.08-.48.28-.97.41-1.46.41-1.17 0-2.02-.28-2.54-.87-.53-.58-.79-1.46-.79-2.63v-5.66h1.97v5.47c0 .78.14 1.34.46 1.65.29.33.72.5 1.26.5.41 0 .76-.07 1.03-.2.28-.13.51-.3.68-.51.18-.21.29-.47.37-.77.09-.3.12-.62.12-.97v-5.17h1.97v8.91h-.02Zm3.35-2.85c.07.57.28.97.66 1.21.38.23.83.35 1.36.35.18 0 .39-.02.62-.05.23-.03.46-.08.66-.17.21-.08.38-.19.51-.36.13-.16.2-.36.18-.6-.02-.25-.1-.46-.28-.63-.18-.16-.39-.28-.66-.39-.26-.1-.57-.18-.91-.25-.35-.06-.69-.15-1.06-.23-.36-.08-.72-.18-1.06-.29a3.22 3.22 0 0 1-.92-.48c-.26-.2-.49-.44-.64-.75-.17-.32-.25-.68-.25-1.14 0-.49.12-.88.36-1.21.23-.33.54-.59.91-.79.36-.2.77-.34 1.21-.43.44-.08.87-.11 1.26-.11.46 0 .91.05 1.32.15.41.09.8.24 1.13.47.34.22.62.51.84.85.23.35.36.78.42 1.27h-2.05c-.1-.48-.31-.79-.64-.95-.34-.17-.72-.25-1.16-.25-.13 0-.32.02-.5.03-.19.04-.36.07-.54.14-.16.06-.31.16-.42.27-.12.12-.18.28-.18.48 0 .25.08.43.24.58.17.14.38.26.66.37.26.1.57.18.92.25.34.06.7.15 1.06.23.37.08.71.18 1.06.29.34.12.65.27.91.48.27.2.5.44.66.74.16.29.25.67.25 1.1 0 .52-.12.97-.36 1.34-.25.37-.56.68-.94.91-.38.23-.82.39-1.28.51-.48.09-.94.16-1.4.16-.55 0-1.08-.07-1.55-.2a4 4 0 0 1-1.25-.57c-.35-.27-.63-.58-.82-.97-.2-.38-.31-.84-.33-1.38H53v.02h.01Zm6.49-6.06h1.49V9.27h1.97v2.67h1.77v1.47h-1.77v4.75c0 .22.01.38.03.55.02.14.07.28.12.37.06.1.16.18.27.23.14.05.3.09.53.09.13 0 .28 0 .41-.02.13-.02.28-.03.41-.07v1.53c-.21.03-.43.05-.64.07-.21.03-.41.03-.64.03-.53 0-.94-.05-1.25-.15-.31-.1-.56-.24-.74-.43a1.51 1.51 0 0 1-.36-.7c-.06-.28-.1-.62-.11-.99v-5.25H59.5v-1.49.03Zm6.61 0h1.85v1.21H68c.28-.52.65-.88 1.15-1.11.49-.23 1.01-.34 1.6-.34.71 0 1.32.11 1.84.37.53.25.95.58 1.3 1.02.34.43.61.94.77 1.51.17.57.26 1.2.26 1.84 0 .61-.08 1.18-.23 1.74-.16.56-.39 1.06-.7 1.49-.31.43-.71.77-1.2 1.04-.49.26-1.05.39-1.71.39-.28 0-.57-.03-.85-.08s-.56-.13-.82-.25c-.26-.11-.51-.26-.72-.44-.23-.18-.41-.4-.56-.62h-.03v4.44h-1.97V11.96h-.02Zm6.88 4.46c0-.39-.05-.78-.17-1.16-.1-.38-.26-.71-.47-1-.22-.3-.48-.53-.77-.71-.32-.18-.68-.26-1.07-.26-.82 0-1.45.28-1.87.85-.41.58-.63 1.35-.63 2.3 0 .46.05.87.17 1.25.11.38.26.71.49.98.21.28.48.5.79.66.31.17.65.25 1.06.25.46 0 .83-.1 1.14-.28.31-.18.55-.43.77-.71.2-.29.34-.62.43-1 .08-.39.13-.77.13-1.17Zm3.46-7.86h1.97v1.86h-1.97V8.56Zm0 3.4h1.97v8.91h-1.97v-8.91Zm3.73-3.4h1.97v12.31h-1.97V8.56Zm7.97 12.56c-.7 0-1.34-.12-1.9-.36a4.32 4.32 0 0 1-1.41-.97c-.38-.41-.68-.92-.87-1.49-.2-.58-.31-1.22-.31-1.89 0-.67.09-1.3.31-1.87.19-.58.49-1.07.87-1.5.37-.41.85-.73 1.41-.96.56-.23 1.2-.36 1.9-.36.71 0 1.35.11 1.91.36.56.23 1.01.55 1.41.96.38.41.67.92.87 1.5.2.57.31 1.2.31 1.87 0 .69-.1 1.31-.31 1.89-.22.57-.49 1.06-.87 1.49-.38.41-.85.74-1.41.97-.56.23-1.19.36-1.91.36Zm0-1.56c.43 0 .82-.1 1.14-.28.32-.18.57-.43.78-.72.22-.3.36-.64.46-1 .1-.38.15-.76.15-1.15 0-.38-.05-.76-.15-1.13-.1-.38-.24-.71-.46-1-.21-.3-.47-.53-.78-.71-.33-.18-.71-.28-1.14-.28-.42 0-.82.1-1.13.28-.33.18-.57.43-.79.71-.21.29-.36.62-.46 1-.1.37-.15.75-.15 1.13 0 .39.05.77.15 1.15.1.38.25.7.46 1 .22.29.48.54.79.72.33.2.71.28 1.13.28Zm5.09-7.6h1.49V9.27h1.97v2.67h1.78v1.47H96.7v4.75c0 .22.02.38.04.55.01.14.06.28.11.37.07.1.17.18.28.23.13.05.3.09.53.09.13 0 .28 0 .41-.02.13-.02.28-.03.41-.07v1.53c-.22.03-.43.05-.64.07-.22.03-.41.03-.64.03-.53 0-.94-.05-1.25-.15-.31-.1-.56-.24-.74-.43-.18-.19-.3-.42-.36-.7-.07-.28-.1-.62-.12-.99v-5.25h-1.49v-1.49.03Z" fill="#000"/><path d="M23.58 8.56h-9.01L11.8 0 9.01 8.56 0 8.55l7.28 5.3-2.79 8.57 7.29-5.31 7.29 5.31-2.78-8.57 7.29-5.29Z" fill="#00B67A"/><path d="m16.92 15.79-.63-1.94-4.49 3.27 5.12-1.33Z" fill="#005128"/></svg>
