<svg width="84.694" height="20.236" fill="none" xmlns="http://www.w3.org/2000/svg"><defs><filter id="a" x="0" y="0" width="84.694" height="20.236" filterUnits="userSpaceOnUse" color-interpolation-filters="sRGB"><feFlood flood-opacity="0" result="BackgroundImageFix"/><feColorMatrix in="SourceAlpha" values="0 0 0 0 0 0 0 0 0 0 0 0 0 0 0 0 0 0 127 0" result="hardAlpha"/><feOffset dy="4"/><feGaussianBlur stdDeviation="1.333"/><feComposite in2="hardAlpha" operator="out" k2="-1" k3="1"/><feColorMatrix values="0 0 0 0 0 0 0 0 0 0 0 0 0 0 0 0 0 0 0.25 0"/><feBlend in2="BackgroundImageFix" result="effect_dropShadow_1"/><feBlend in="SourceGraphic" in2="effect_dropShadow_1" result="shape"/></filter></defs><g opacity=".8" filter="url(#a)" fill="#F59E0B"><path d="M9.57.59c.25-.79 1.37-.79 1.63 0l.92 2.83c.11.35.44.59.82.59h2.97c.83 0 1.18 1.07.51 1.56l-2.41 1.74c-.3.22-.43.61-.31.96l.92 2.83c.25.79-.65 1.45-1.33.96l-2.4-1.74a.855.855 0 0 0-1.01 0l-2.41 1.74c-.67.49-1.58-.17-1.32-.96l.92-2.83a.87.87 0 0 0-.31-.96L4.35 5.57c-.67-.49-.33-1.56.51-1.56h2.97c.37 0 .7-.24.82-.59L9.57.59ZM25.54.59c.26-.79 1.38-.79 1.64 0l.92 2.83c.11.35.44.59.81.59h2.98c.83 0 1.18 1.07.5 1.56l-2.4 1.74c-.3.22-.43.61-.31.96l.92 2.83c.25.79-.65 1.45-1.33.96l-2.4-1.74a.855.855 0 0 0-1.01 0l-2.41 1.74c-.67.49-1.58-.17-1.32-.96l.92-2.83a.87.87 0 0 0-.31-.96l-2.41-1.74c-.67-.49-.33-1.56.5-1.56h2.98c.37 0 .7-.24.82-.59l.91-2.83ZM41.52.59c.26-.79 1.38-.79 1.64 0l.92 2.83c.11.35.44.59.81.59h2.98c.83 0 1.18 1.07.5 1.56l-2.4 1.74c-.3.22-.43.61-.31.96l.91 2.83c.26.79-.65 1.45-1.32.96l-2.4-1.74a.87.87 0 0 0-1.02 0l-2.4 1.74c-.67.49-1.58-.17-1.32-.96l.92-2.83a.859.859 0 0 0-.32-.96l-2.4-1.74c-.68-.49-.33-1.56.5-1.56h2.98c.37 0 .7-.24.81-.59l.92-2.83ZM57.5.59c.26-.79 1.38-.79 1.64 0l.92 2.83c.11.35.44.59.81.59h2.98c.83 0 1.18 1.07.5 1.56l-2.4 1.74c-.3.22-.43.61-.31.96l.91 2.83c.26.79-.64 1.45-1.32.96l-2.4-1.74a.855.855 0 0 0-1.01 0l-2.41 1.74c-.67.49-1.58-.17-1.32-.96l.92-2.83a.859.859 0 0 0-.32-.96l-2.4-1.74c-.67-.49-.33-1.56.5-1.56h2.98c.37 0 .7-.24.81-.59L57.5.59ZM73.48.59c.26-.79 1.38-.79 1.64 0l.92 2.83c.11.35.44.59.81.59h2.98c.83 0 1.18 1.07.5 1.56l-2.4 1.74c-.3.22-.43.61-.31.96l.91 2.83c.26.79-.65 1.45-1.32.96l-2.4-1.74a.87.87 0 0 0-1.02 0l-2.4 1.74c-.67.49-1.58-.17-1.32-.96l.92-2.83a.859.859 0 0 0-.32-.96l-2.4-1.74c-.68-.49-.33-1.56.5-1.56h2.98c.37 0 .7-.24.81-.59l.92-2.83Z"/></g></svg>